<?xml version="1.0" encoding="utf-8"?>
<!-- Generator: Adobe Illustrator 27.5.0, SVG Export Plug-In . SVG Version: 6.00 Build 0)  -->
<svg version="1.1" id="Layer_1" xmlns="http://www.w3.org/2000/svg" xmlns:xlink="http://www.w3.org/1999/xlink" x="0px" y="0px"
	 viewBox="0 0 4000 4000" style="enable-background:new 0 0 4000 4000;" xml:space="preserve">
<g>
	<g>
		<rect x="0" y="0" style="fill:#F9CFD9;" width="4000" height="4000"/>
	</g>
	<g>
		<g>
			<path style="fill:#FFFFFF;" d="M3008.785,2854.147c228.176-178.021,69.414-391.394,21.316-524.269
				c-5.017-13.965-8.852-26.994-10.902-39.049c-21.368-126.715,112.59-54.929,171.154-142.719
				c19.445-29.207,16.537-70.653-5.524-106.326c-26.31-42.647-79.951-77.075-155.351-72.664
				c-153.57,9.022-288.667,170.524-184.785,377.586c6.998,13.954,13.991,27.424,20.86,40.369
				c92.101,173.442,165.303,259.773,17.706,368.994c-93.413,69.084-202.863,49.552-281.888,18.401
				c-63.58-25.06-107.495-57.644-107.495-57.644l-73.376,96.133C2396.691,2794.769,2717.918,3081.098,3008.785,2854.147z"/>
		</g>
		<g>
			<path style="fill:#D7EDF4;" d="M3030.1,2329.887c48.08,132.879,206.839,346.221-21.331,524.274
				c-290.858,226.955-612.064-59.395-588.263-41.186l73.354-96.158c0,0,43.917,32.602,107.517,57.66
				c108.167,163.486,337.551,139.122,436.136-9.884c117.619-177.793-28.484-317.391-70.146-437.22
				c5.548-5.506,12.572-8.237,22.847-3.816C3005.042,2329.974,3019.955,2330.581,3030.1,2329.887z"/>
		</g>
		<g>
			<path style="fill:#ED7818;" d="M3201.52,2120.967c-0.174,0.997-0.391,1.951-0.651,2.905c-0.476,1.951-1.041,3.858-1.604,5.722
				c-0.607,1.865-1.301,3.729-2.038,5.506c-1.865,4.552-4.162,8.888-6.894,13.006c-1.69,2.558-3.469,4.943-5.289,7.24
				c-1.82,2.298-3.685,4.466-5.593,6.503c-45.304,47.949-119.309,31.648-149.309,63.947c-0.651,0.65-1.257,1.387-1.865,2.124
				c-1.821,2.211-3.424,4.595-4.812,7.24c-0.91,1.777-1.778,3.642-2.515,5.636c-4.466,11.922-5.463,27.963-1.734,50.03
				c2.037,12.052,5.853,25.102,10.882,39.062c-10.145,0.694-25.058,0.087-39.885-6.33c-10.275-4.422-17.299-1.69-22.847,3.816
				c-6.503-18.555-10.449-36.591-10.536-54.235c-0.693-131.881,88.961-94.641,175.885-142.373
				c37.674-20.593,49.553-57.574,52.111-88.962c1.518,2.428,2.948,4.943,4.292,7.414c1.301,2.514,2.558,5.029,3.729,7.587
				c0.563,1.257,1.127,2.514,1.647,3.815c0.521,1.257,1.04,2.558,1.518,3.815c0.389,1.127,0.823,2.254,1.214,3.338
				c0.087,0.174,0.129,0.347,0.174,0.521c2.601,7.717,4.335,15.521,5.246,23.194
				C3203.818,2101.588,3203.471,2111.559,3201.52,2120.967z"/>
		</g>
		<g>
			<path style="fill:#FC9B28;" d="M3189.121,2049.217c-1.344-2.471-2.774-4.986-4.292-7.414
				c-2.558,31.388-14.437,68.369-52.111,88.962c-86.924,47.732-176.579,10.492-175.885,142.373
				c0.087,17.645,4.032,35.68,10.536,54.235c-8.542,8.367-13.44,23.238-20.984,27.919c-20.376,12.746-38.281-16.778-50.897-2.514
				c-7.37,8.324-17.775,25.882-29.957,34.292c-6.85-12.962-13.873-26.403-20.853-40.362
				c-103.875-207.056,31.214-368.591,184.815-377.609C3109.264,1964.418,3164.67,2003.262,3189.121,2049.217z"/>
		</g>
		<g>
			<path style="fill:#FC9B28;" d="M3189.121,2049.217c1.387,2.514,2.645,5.073,3.729,7.587
				C3191.679,2054.246,3190.421,2051.731,3189.121,2049.217z"/>
		</g>
		<g>
			<path style="fill:#FC9B28;" d="M3197.402,2068.292c2.644,7.717,4.378,15.521,5.246,23.194
				C3201.737,2083.813,3200.002,2076.01,3197.402,2068.292z"/>
		</g>
		<g>
			<path style="fill:#FC9B28;" d="M3203.254,2106.487c-0.183,4.932-0.758,9.771-1.734,14.479
				C3202.495,2116.263,3203.07,2111.418,3203.254,2106.487z"/>
		</g>
		<g>
			<path style="fill:#FC9B28;" d="M3203.254,2106.487c0.183-4.921-0.022-9.934-0.607-15.001
				C3203.232,2096.537,3203.438,2101.556,3203.254,2106.487z"/>
		</g>
		<g>
			<path style="fill:#000072;" d="M2759.453,2959.233c-49.082,0-99.761-8.354-151.46-25.171
				c-112.241-36.514-194.297-102.358-201.309-109.917c-6.123-6.602-6.343-17.026-0.288-23.691
				c4.004-4.404,13.672-9.639,24.604-1.284c1.113,0.85,2.095,1.812,2.944,2.852c27.524,22.363,308.755,237.72,564.17,38.457
				c179.409-139.971,106.064-301.294,47.134-430.918c-20.122-44.263-37.5-82.49-43.135-115.85
				c-14.946-88.496,40.635-100.034,85.298-109.307c33.027-6.855,67.178-13.94,88.501-45.913
				c14.766-22.129,13.306-54.419-3.809-84.268c-26.416-46.089-79.282-71.362-141.592-67.783
				c-72.676,4.268-140.239,45.737-176.323,108.223c-40.21,69.644-38.081,156.392,5.996,244.277
				c17.207,34.316,34.678,66.104,50.088,94.15c76.348,138.94,126.787,230.728-16.699,336.919
				c-73.643,54.492-168.286,64.756-273.677,29.653c-78.018-25.977-134.009-67.173-136.357-68.911
				c-7.69-5.708-9.297-16.572-3.589-24.263c5.713-7.69,16.577-9.292,24.263-3.589c2.095,1.548,212.656,154.727,368.726,39.229
				c119.136-88.164,83.975-152.148,6.938-292.334c-15.557-28.315-33.193-60.41-50.698-95.308
				c-49.478-98.657-51.265-197.09-5.024-277.168c41.846-72.471,120.142-120.562,204.326-125.498
				c75.591-4.526,140.601,27.388,173.716,85.151c23.696,41.343,24.683,87.622,2.568,120.767
				c-29.209,43.794-74.175,53.125-110.303,60.625c-46.372,9.624-67.534,14.019-58.149,69.575
				c4.878,28.896,21.392,65.215,40.508,107.266c60.601,133.291,143.589,315.835-57.368,472.617
				C2941.645,2928.525,2853.51,2959.228,2759.453,2959.233z"/>
		</g>
		<g style="opacity:0.5;">
			<path style="fill:#FFFFFF;" d="M2975.403,2073.88c13.44-8.653,37.205-25.037,37.019-46.708
				c-0.095-11.075-13.891-21.398-32.69-17.814c-106.558,20.314-159.147,185.184-130.701,187.947
				C2870.997,2199.437,2859.226,2148.677,2975.403,2073.88z"/>
		</g>
		<g>
			<g>
				<path style="fill:#2B7AED;" d="M2854.368,1241.352c257.886,134.282,433.758,329.599,67.131,476.775
					c0,0-242.78-4.335-242.78-17.341c0-13.006-221.103-312.145-221.103-312.145l-21.677-199.426l117.054-39.018L2854.368,1241.352z"
					/>
			</g>
			<g>
				<path style="fill:#000072;" d="M2921.499,1735.468c-0.103,0-0.205-0.005-0.308-0.005c-0.61-0.01-61.626-1.118-121.855-3.809
					c-35.547-1.582-63.936-3.408-84.375-5.415c-27.92-2.739-50.371-4.946-53.267-21.611
					c-12.139-24.214-139.248-199.106-218.022-305.679c-1.826-2.471-2.964-5.381-3.296-8.433l-21.675-199.429
					c-0.879-8.115,4.014-15.747,11.758-18.325l117.051-39.019c3.398-1.138,7.075-1.191,10.503-0.146l301.377,91.157
					c1.035,0.308,2.031,0.718,2.988,1.216c109.331,56.929,291.797,171.821,285.405,301.66
					c-3.94,80.107-77.9,149.614-219.824,206.587C2925.903,1735.043,2923.71,1735.468,2921.499,1735.468z M2661.376,1700.785
					c0,0.01,0,0.024,0,0.034C2661.376,1700.81,2661.376,1700.8,2661.376,1700.785z M2692.065,1688.261
					c25.22,5.684,130.63,10.679,226.221,12.461c126.108-51.172,191.665-109.971,194.858-174.795
					c3.96-80.503-92.729-178.301-265.352-268.447l-294.546-89.092l-98.555,32.856l19.658,180.864
					c11.929,16.167,60.171,81.626,107.871,147.563C2658.789,1635.517,2683.862,1672.782,2692.065,1688.261z"/>
			</g>
			<g>
				<path style="fill:#FFFFFF;" d="M2652.708,3161.798c23.411,30.434,37.761,64.683,39.322,99.323
					c1.127,25.232-8.021,48.729-23.801,66.418c-14.524,16.301-34.683,27.66-57.704,30.911
					c-65.854,9.408-135.87,10.014-205.885,3.815h-0.043c-25.536-2.211-51.071-5.376-76.389-9.365
					c-5.461-0.823-10.925-1.734-16.387-2.645c-3.859-0.65-7.717-1.344-11.576-2.038h-286.133c0,0.434-0.043,0.867-0.087,1.301v0.087
					c-5.939,40.318-267.404,39.842-267.404-1.388l-53.368,8.28l-198.082,30.738c-13.483,1.344-26.836,2.601-40.059,3.685
					c-91.953,7.587-177.359,8.411-250.41-3.685c-48.903-17.428-63.599-52.761-54.452-93.297
					c7.37-32.732,30.217-68.889,63.123-101.794c-0.564-0.26-1.127-0.477-1.734-0.737c-139.382-59.828-239.354-186.94-265.54-336.38
					c-12.095-69.235-15-145.321-9.971-224.268c1.69-28.006,4.466-56.36,8.193-84.886c22.457-174.151,79.554-355.108,157.503-502.467
					c61.779-116.968,136.694-212.779,217.851-267.145l163.009,45.955l1084.618,305.685c0.217,0.39,0.476,0.823,0.737,1.214
					c17.688,29.264,33.729,62.169,47.689,99.67c0.347,0.91,0.693,1.864,1.04,2.774c12.572,34.12,23.497,71.968,32.385,114.15
					c197.086,168.775,232.766,549.982,8.888,809.973c-1.647,1.908-3.295,3.815-4.942,5.679
					C2652.968,3161.494,2652.838,3161.667,2652.708,3161.798z"/>
			</g>
			<g>
				<path style="fill:#D7EDF4;" d="M2098.737,2236.591c-159.151,25.492-326.365,21.677-476.195-37.631
					c-132.358-52.371-248.242-146.448-387.233-177.055c-46.085-10.145-102.228-9.408-130.884,28.093l-2.601-6.59
					c61.779-116.968,136.694-212.779,217.851-267.145l163.009,45.955c50.984,72.53,123.341,131.578,193.487,187.677
					c24.885,19.856,49.813,39.798,76.649,56.966c32.126,20.593,66.678,37.024,101.144,53.412
					C1935.555,2159.031,2017.145,2197.832,2098.737,2236.591z"/>
			</g>
			<g>
				<path style="fill:#D7EDF4;" d="M1455.111,3390.921c-91.953,7.587-177.359,8.411-250.41-3.685
					c-48.903-17.428-63.599-52.761-54.452-93.297c39.539,31.778,85.32,59.785,133.833,50.29
					c52.848-10.318,89.394-71.533,73.397-122.95c-2.168-7.067-5.549-14.307-11.922-18.035c-7.283-4.292-16.431-2.905-24.841-1.865
					c-57.053,6.85-115.104-11.055-163.963-41.316c-48.859-30.217-89.438-72.14-126.245-116.23
					c-11.922-14.35-23.585-29.047-32.428-45.434c-10.665-19.856-16.952-41.707-22.804-63.47
					c-14.394-53.584-26.793-107.776-33.642-162.792c-5.853-46.865-7.717-94.207-5.506-141.376
					c1.257-28.397,3.988-56.75,8.193-84.886c4.509-30.694,10.795-61.128,18.772-91.129l1.214,8.194
					c-5.549,54.712,11.749,111.332,46.908,153.645c9.061,10.925,19.293,20.983,26.532,33.208
					c6.807,11.446,10.708,24.365,14.87,37.067c39.452,119.916,110.855,229.124,204.845,313.446
					c50.637,45.391,108.211,84.322,148.703,138.948C1458.753,3210.267,1477.005,3305.428,1455.111,3390.921z"/>
			</g>
			<g>
				<path style="fill:#D7EDF4;" d="M2169.62,3348.218h-155.509c0,0.434-0.043,0.867-0.087,1.301v0.087
					c-5.939,40.318-267.404,39.842-267.404-1.388l-53.368,8.28c-6.806-17.688-11.792-36.156-15.217-54.712
					c-10.665-58.484-6.892-118.485-3.035-177.836c4.769-74.265,9.581-148.529,14.394-222.794c-1.821-1.647-1.301-4.725,0.433-6.85
					c0.173-2.948,0.39-5.897,0.564-8.844l-0.13,8.323c0.954-0.953,2.124-1.647,3.425-1.82c4.552-0.564,8.627,2.645,12.182,5.593
					c95.637,78.947,245.684,82.631,345.137,8.497c26.316,57.573,46.648,117.661,66.288,177.836
					c22.153,67.761,43.571,136.346,50.81,207.229C2170.053,3309.849,2170.791,3329.185,2169.62,3348.218z"/>
			</g>
			<g>
				<path style="fill:#D7EDF4;" d="M2668.229,3327.538c-14.524,16.301-34.683,27.66-57.704,30.911
					c-65.854,9.408-135.87,10.014-205.885,3.815c-2.906,4.466-6.243,8.714-9.928,12.615c0,0.043-0.043,0.043-0.043,0.043
					c-0.867,0.911-1.777,1.821-2.688,2.732c-11.835,11.618-27.051,20.159-44.61,23.888c-17.862,3.815-37.328,6.633-57.66,8.497
					c-0.607-0.737-1.127-1.474-1.647-2.211c-11.012-14.87-19.38-31.562-26.707-48.729c-1.518-3.599-3.034-7.24-4.466-10.882
					c-1.864-4.596-3.684-9.191-5.462-13.786c-18.078-46.648-35.159-96.245-27.616-145.668c0.52-3.338,1.127-6.633,1.864-9.885
					c0.13-0.65,0.304-1.3,0.434-1.951c9.494-40.579,34.639-76.476,62.949-107.387c7.24-7.891,14.74-15.564,22.414-23.064
					c98.716-96.158,230.771-162.489,295.323-283.835l6.07-8.237l8.15-11.099c-0.087,0.391-0.13,0.823-0.216,1.214
					c-7.241,39.885-20.333,78.686-38.716,114.843c-20.419,40.059-47.776,78.34-53.411,122.951
					c-5.116,40.275,9.06,81.895,34.986,113.152c24.192,29.09,58.051,49.423,94.381,60.218c2.645,0.737,5.332,1.474,7.977,2.168
					c-4.249,1.734-8.541,2.862-12.919,3.511c-26.012,3.815-53.585-9.884-79.684-18.295c-35.202-11.272-79.294-10.318-102.574,18.382
					c-11.446,14.177-15.781,32.689-18.772,50.681c-5.246,32.212-6.329,67.979,12.789,94.467
					c25.925,35.94,77.517,40.189,121.65,35.68C2614.037,3339.46,2641.393,3334.518,2668.229,3327.538z"/>
			</g>
			<g>
				<path style="fill:#000072;" d="M1331.796,3413.881c-48.838,0-91.558-3.179-129.932-9.536c-1.016-0.171-2.021-0.43-2.993-0.776
					c-45.981-16.416-61.435-45.664-66.309-67.305c-8.96-39.854,10.22-90.391,51.719-138.32
					c-134.468-65.532-229.19-191.045-255.244-339.912c-30.762-175.752-4.912-402.388,70.918-621.792
					c76.221-220.522,189.238-393.433,310.073-474.399c4.224-2.832,9.473-3.677,14.36-2.285l1247.622,351.66
					c4.219,1.187,7.832,3.931,10.112,7.671c37.129,61.001,64.233,132.207,82.773,217.52
					c93.398,82.441,152.632,212.822,162.793,358.818c11.763,168.945-43.857,338.525-152.891,467.529
					c21.191,31.162,33.086,64.648,34.561,97.593c2.563,57.5-38.867,107.051-96.372,115.259
					c-93.945,13.403-202.603,9.937-314.307-10.049h-273.477c-20.41,25.396-87.251,31.294-144.849,31.294
					c-56.289,0-121.401-5.63-143.384-29.585l-239.141,37.109c-0.307,0.044-0.615,0.083-0.923,0.117
					C1434.731,3410.751,1380.253,3413.881,1331.796,3413.881z M1209.106,3370.385c72.988,11.89,163.267,11.758,283.862-0.356
					l250.991-38.95c5.01-0.776,10.098,0.679,13.945,3.97c3.047,2.612,5.068,6.177,5.776,10.063
					c8.735,7.183,49.897,17.051,116.675,17.051c66.768,0,107.93-9.868,116.67-17.051c1.465-8.096,8.545-14.238,17.065-14.238
					h286.133c1.03,0,2.061,0.093,3.076,0.278c108.638,19.575,214.043,23.081,304.785,10.117
					c39.751-5.674,68.394-39.795,66.626-79.375c-1.338-29.897-13.696-60.859-35.747-89.526c-5.063-6.582-4.751-15.83,0.747-22.051
					c108.921-123.306,164.824-288.306,153.384-452.686c-9.688-139.097-66.26-262.573-155.22-338.765
					c-2.9-2.48-4.897-5.85-5.688-9.585c-17.158-81.206-42.114-148.862-76.206-206.553l-1233.188-347.593
					c-112.251,78.726-217.661,242.969-290.054,452.432c-73.97,214.019-99.316,434.346-69.541,604.487
					c25.342,144.766,120.776,265.674,255.298,323.423l1.528,0.649c5.347,2.222,9.233,6.963,10.361,12.642
					c1.123,5.679-0.654,11.543-4.751,15.635c-43.896,43.901-66.597,91.509-59.233,124.248
					C1170.62,3347.402,1184.985,3361.44,1209.106,3370.385z M1763.964,3348.193c0,0.005,0,0.015,0,0.024
					C1763.964,3348.207,1763.964,3348.198,1763.964,3348.193z"/>
			</g>
			<g>
				<path style="fill:#000072;" d="M1250.833,3407.295c-40.607-40.605-35.308-103.406,14.564-132.778
					c-15.812,15.479-25.888,37.81-23.641,59.441c1.882,20.301,14.598,36.404,31.362,46.761
					C1273.118,3380.719,1250.833,3407.295,1250.833,3407.295L1250.833,3407.295z"/>
			</g>
			<g>
				<path style="fill:#000072;" d="M2573.494,3350.372c16.766-10.358,29.48-26.459,31.362-46.761
					c1.038-10.164-0.613-21.029-4.731-31.293c-4.097-10.281-10.615-19.935-18.909-28.148c10.051,5.927,19.229,13.95,26.462,23.892
					c25.467,33.607,17.313,79.873-11.901,108.888C2595.779,3376.949,2573.494,3350.372,2573.494,3350.372L2573.494,3350.372z"/>
			</g>
			<g>
				<path style="fill:#000072;" d="M2478.118,3354.708c16.765-10.358,29.475-26.461,31.362-46.761
					c1.035-10.165-0.613-21.029-4.731-31.293c-4.099-10.282-10.618-19.937-18.911-28.149c10.052,5.927,19.231,13.951,26.465,23.893
					c25.463,33.608,17.313,79.872-11.903,108.886C2500.401,3381.283,2478.118,3354.708,2478.118,3354.708L2478.118,3354.708z"/>
			</g>
			<g>
				<path style="fill:#000072;" d="M1216.695,3175.983c33.93,17.309,73.034,23.646,111.563,18.33
					c-37.351,17.056-80.459,22.205-121.514,14.894C1179.718,3204.216,1191.414,3165.235,1216.695,3175.983L1216.695,3175.983z"/>
			</g>
			<g>
				<path style="fill:#000072;" d="M2654.039,3181.286c-21.982-3.954-43.23-11.192-62.202-21.638
					c-19.016-10.402-35.642-23.866-49.68-39.035c17.702,10.71,36.663,18.567,55.916,22.855c19.263,4.337,38.713,5.139,57.639,3.177
					C2682.488,3145.446,2680.599,3185.043,2654.039,3181.286L2654.039,3181.286z"/>
			</g>
			<g>
				<g>
					<path style="fill:#FFFFFF;" d="M2648.373,2645.891c-5.896,27.573-13.223,60.955-27.572,98.629
						c-7.458,19.509-16.778,40.145-28.787,61.779c-14.783,26.662-23.931,37.24-47.039,63.729c-0.087,0.13-0.174,0.217-0.303,0.347
						c-7.198,8.28-15.781,18.078-26.316,30.391c-19.509,22.891-45.738,54.365-82.415,100.623c0,0-0.693,0.867-1.994,2.601
						c-0.087,0.087-0.174,0.174-0.217,0.26c-11.012,14.35-60.825,81.202-92.386,156.463c-4.855,11.662-8.497,23.454-8.497,23.454
						v0.043c-0.823,2.602-1.604,5.246-2.298,7.934c2.037,1.258,4.075,2.558,6.07,3.859c0.043,0.043,0.13,0.086,0.172,0.13
						c14.35,9.451,27.964,20.16,39.886,31.909c0.693,0.65,1.344,1.344,2.038,2.037c1.864,1.907,3.684,3.815,5.462,5.766
						c1.431,1.561,2.818,3.122,4.118,4.682c3.165,3.642,6.113,7.327,8.844,11.142c1.214,1.648,2.341,3.295,3.469,4.986
						c1.084,1.604,2.124,3.208,3.121,4.855c0.043,0.043,0.087,0.13,0.13,0.217c0.78,1.257,1.473,2.514,2.21,3.771
						c0.695,1.258,1.388,2.515,2.082,3.772c1.343,2.558,2.557,5.115,3.728,7.717c10.232,23.107,9.711,47.819,1.127,69.235
						c0,0.043-0.043,0.043-0.043,0.043c-2.255,5.592-5.029,10.925-8.367,15.997c-2.905,4.466-6.199,8.671-9.885,12.615
						c0,0.043-0.043,0.043-0.043,0.043c-0.867,0.911-1.777,1.821-2.688,2.732c-11.835,11.618-27.051,20.159-44.61,23.888
						c-17.862,3.815-37.328,6.633-57.66,8.497c-1.604,0.174-3.208,0.303-4.813,0.433c-41.143,3.468-85.58,2.905-126.982-1.995
						c-0.217-0.043-0.39-0.043-0.607-0.086c-41.229-4.899-79.467-14.177-108.514-28.05c-8.367-4.032-15.867-9.277-22.37-15.563
						c-4.683-4.552-8.888-9.625-12.4-15.174c0,0-0.087,0,0-0.043c-7.24-11.142-11.922-23.888-13.613-37.458
						c-1.257-9.927-1.907-20.333-2.124-31.127c-0.391-18.555,0.563-38.281,2.211-59.004c0.303-3.642,0.606-7.327,0.91-11.012
						c0.606-6.589,1.214-13.309,1.907-20.116c0.65-6.546,1.344-13.18,2.037-19.899c0.521-4.595,0.997-9.234,1.518-13.873
						c0.391-3.728,0.78-7.457,1.171-11.185c0.52-4.725,1.041-9.494,1.517-14.306c0.043-0.65,0.13-1.257,0.174-1.865
						c1.171-11.185,2.298-22.544,3.295-34.032c0.26-2.948,0.521-5.939,0.738-8.888c0.737-8.931,1.386-17.905,1.951-26.966
						c2.427-40.015,2.774-81.461-1.648-123.47c9.972-7.587,19.336-15.608,28.136-24.062c35.853-34.206,62.603-74.915,84.583-119.005
						c169.556-163.313,339.068-326.582,508.58-489.895c9.061,32.602,18.121,73.181,23.368,119.656
						C2666.018,2487.651,2665.931,2563.736,2648.373,2645.891z"/>
				</g>
				<g>
					<path style="fill:#D7EDF4;" d="M2336.171,3157.373c15.521-25.205,18.154-57.908,6.864-85.271
						c-3.153-7.642-7.568-15.137-14.486-19.663c-5.538-3.623-12.196-5.036-18.7-6.256c-35.544-6.669-76.444-8.254-103.389,15.867
						c-14.638,13.104-22.843,32.188-26.327,51.523c-3.484,19.335-2.66,39.155-1.825,58.783c0.104,2.44,0.333,5.159,2.15,6.791
						c1.62,1.454,4.001,1.578,6.178,1.594c40.897,0.293,83.305-10.325,121.802,3.483c5.016,1.799,10.133,4.035,15.441,3.563
						c11.464-1.019,17.829-13.419,22.051-24.126L2336.171,3157.373z"/>
				</g>
				<g>
					<path style="fill:#D7EDF4;" d="M2413.006,3346.223c0,0.043-0.043,0.043-0.043,0.043c-2.255,5.592-5.029,10.925-8.367,15.997
						c-2.905,4.466-6.199,8.671-9.885,12.615c0,0.043-0.043,0.043-0.043,0.043c-0.867,0.911-1.777,1.821-2.688,2.732
						c-11.835,11.618-27.051,20.159-44.61,23.888c-17.862,3.815-37.328,6.633-57.66,8.497c-1.604,0.174-3.208,0.303-4.813,0.433
						c-41.143,3.468-85.58,2.905-126.982-1.995c-0.217-0.043-0.39-0.043-0.607-0.086c-41.229-4.899-79.467-14.177-108.514-28.05
						c-8.367-4.032-15.867-9.277-22.37-15.563c-4.683-4.552-8.888-9.625-12.4-15.174c0,0-0.087,0,0-0.043
						c-7.24-11.142-11.922-23.888-13.613-37.458c-1.257-9.927-1.907-20.333-2.124-31.127c0.043,0.043,0.043,0.087,0.087,0.13
						c11.098,19.943,29.74,35.289,50.289,45.478c22.891,11.315,48.209,16.864,73.441,21.113c1.042,0.173,2.125,0.346,3.166,0.52
						c14.566,2.385,29.22,4.379,43.917,5.983c4.162,0.477,8.28,0.91,12.443,1.3c26.489,2.471,53.108,3.686,79.727,3.599
						c2.515,0,5.03,0,7.543-0.043c14.22-0.217,28.657-0.823,42.747-2.948c5.593-0.781,11.141-1.865,16.56-3.209
						c11.229-2.818,22.024-6.85,32.082-12.659c27.183-15.824,46.951-48.426,38.627-78.73l4.943,0.217
						c0.78,1.257,1.473,2.514,2.21,3.771c0.695,1.258,1.388,2.515,2.082,3.772c1.343,2.558,2.557,5.115,3.728,7.717
						C2422.111,3300.095,2421.59,3324.807,2413.006,3346.223z"/>
				</g>
				<g>
					<path style="fill:#000072;" d="M2537.86,2053.278c64.974,88.865,110.651,192.271,129.248,301.115
						c25.605,179.468,6.663,379.076-109.578,525.784c-27.069,32.112-79.826,88.143-110.402,133.132
						c-18.571,24.51-59.819,92.624-80.122,136.805c-7.62,15.831-14.776,32.064-21.5,48.099l-6.89-20.052
						c27.788,16.423,51.636,37.757,70.996,63.276c2.817,3.776,5.452,7.78,7.927,11.713l-2.388-3.048
						c18.844,24.217,27.865,67.681,12.828,102.152c0.001,0,1.168-5.892,1.168-5.892c0.315,5.841-4.73,13.32-10.506,15.018
						c-1.818,0.626-2.871,0.896-5.136,1.02l14.468-10.198c-2.466,6.238-5.549,12.292-9.229,17.986
						c-3.509,5.449-7.755,11.012-12.298,15.775c0,0,4.405-10.944,4.405-10.944c0.319,5.834-4.733,13.326-10.506,15.017
						c-1.816,0.626-2.871,0.896-5.134,1.021l11.399-5.274c-31.438,35.08-81.46,36.628-124.944,41.133
						c-71.985,4.61-138.738,1.359-207.3-19.295c-28.511-8.72-57.882-22.644-73.984-49.428c-0.001,0.001,13.071,7.502,13.071,7.502
						c-1.384-0.07-2.202-0.181-3.655-0.552c-11.675-2.964-16.05-18.46-7.231-27.001c0,0-2.066,20.195-2.066,20.195
						c-5.63-8.662-9.932-18.134-12.739-27.984c-10.248-44.509-4.677-90.987-1.031-135.657
						c5.229-49.519,11.564-105.261,13.835-154.713c1.466-34.188,0.954-68.275-2.552-101.934c-0.651-4.221,0.471-8.749,3.374-11.679
						c0,0,125.398-133.078,125.398-133.078c-11.808,28.874-26.917,55.631-43.21,81.892c-16.207,25.934-33.389,51.076-56.826,71.168
						c0,0,3.376-11.683,3.376-11.683l0.022,0.273c5.619,53.185,3.697,106.14-0.784,159.037c-1.435,14.861-3.495,37.501-5.117,52.159
						c-4.952,53.201-14.097,111.933-7.649,164.857c1.411,10.525,5.175,20.849,10.945,29.701l-2.068,20.197
						c8.762-8.412,4.386-24.059-7.244-26.916c-1.447-0.37-2.263-0.481-3.64-0.55l13.074,7.501
						c12.142,20.135,34.809,28.965,56.531,35.936c63.686,19.18,127.543,22.236,195.019,17.859
						c19.856-1.54,39.629-3.973,58.909-7.766c16.805-2.581,33.126-10.503,44.597-22.895c0,0,11.402-5.274,11.402-5.274
						c-2.253,0.123-3.296,0.391-5.103,1.013c-5.75,1.663-10.777,9.129-10.454,14.938c0,0,4.406-10.945,4.406-10.945
						c1.597-1.691,3.115-3.465,4.548-5.306c4.226-5.455,7.875-11.622,10.427-18.158c0,0,14.47-10.199,14.47-10.199
						c-8.21-0.058-15.838,7.921-15.556,15.953c0,0,1.169-5.894,1.169-5.894c4.514-11.268,6.26-23.549,4.895-35.49
						c-1.301-12.866-6.864-24.728-13.504-35.746c0.711,1.445,1.724,2.839,2.884,3.963l-2.39-3.05
						c-8.128-12.937-18.67-24.994-29.844-35.397c-11.584-10.824-24.295-20.619-37.593-28.344c-7.13-4.006-9.986-12.707-6.892-20.054
						c27.273-66.387,69.438-143.117,106.936-193.494c7.049-11.778,36.836-49.103,52.726-67.407
						c18.485-21.512,38.616-43.184,56.763-64.819c104.686-126.104,129.784-332.773,103.236-500.702
						c-17.741-103.658-61.383-202.463-123.48-287.358C2499.887,2056.132,2523.757,2035.68,2537.86,2053.278L2537.86,2053.278z"/>
				</g>
				<g>
					<path style="fill:#000072;" d="M2327.571,3210.831c-18.989-13.881-45.407-21.829-72.771-25.257
						c-27.834-3.499-56.434-3.157-84.643-2.1c13.779-3.792,27.671-7.439,41.816-10.214c44.166-8.344,92.163-14.146,134.036,8.192
						C2367.199,3193.885,2348.03,3224.523,2327.571,3210.831L2327.571,3210.831z"/>
				</g>
				<g>
					<path style="fill:#000072;" d="M2276.06,3399.065c15.632-8.734,25.167-24.828,28.337-42.847
						c3.499-19.094,1.372-40.056-4.179-60.026c9.958,18.23,17.375,38.585,18.601,60.896c1.578,23.334-7.16,48.41-25.047,64.808
						C2293.773,3421.898,2276.06,3399.065,2276.06,3399.065L2276.06,3399.065z"/>
				</g>
				<g>
					<path style="fill:#000072;" d="M2144.227,3396.781c35.102-18.922,34.722-65.284,25.93-100.587
						c5.261,9.014,9.765,18.623,13.271,28.777c12.238,32.786,9.358,73.821-17.946,99.213
						C2165.484,3424.184,2144.227,3396.781,2144.227,3396.781L2144.227,3396.781z"/>
				</g>
			</g>
			<g>
				<path style="fill:#000072;" d="M2673.753,1768.942c119.828-16.238,251.537,5.051,346.546,83.874
					c6.062,5.378,11.972,10.907,17.759,16.506c-13.374-8.96-26.519-18.08-40.442-26.061
					c-68.459-40.61-147.357-61.253-226.724-62.529c-31.671-0.604-63.376,1.317-94.822,5.525
					C2664.765,1787.552,2662.262,1770.778,2673.753,1768.942L2673.753,1768.942z"/>
			</g>
			<g>
				<path style="fill:#000072;" d="M2638.042,1904.794c110.062-4.809,231.932,27.597,303.91,115.61
					c-21.636-17.41-44.022-33.078-67.767-46.342c-47.207-26.895-100.334-41.983-154.128-47.836
					c-26.931-2.816-54.068-3.564-81.172-2.366C2626.378,1924.136,2625.42,1905.673,2638.042,1904.794L2638.042,1904.794z"/>
			</g>
			<g>
				<path style="fill:#000072;" d="M2578.472,2014.291c87.551,14.054,179.028,59.475,220.68,141.15
					c-14.537-17.015-29.735-32.823-46.341-46.999c-32.894-28.616-72.282-48.864-113.647-62.047
					c-20.727-6.492-41.934-11.432-63.435-14.85C2564.453,2029.49,2566.999,2012.766,2578.472,2014.291L2578.472,2014.291z"/>
			</g>
			<g>
				<path style="fill:#FFFFFF;" d="M2443.961,2174.205c-224.918,100.71-531.21,106.607-848.558-48.556l-166.781-95.378
					c-94.121-82.372-136.867-208.097-98.369-338.157l226.913-153.341l311.972-210.828l138.558-48.426l233.546-81.635l325.064-8.671
					c38.324,37.024,71.533,74.351,100.103,111.896v0.043C2936.543,1656.261,2782.465,2022.598,2443.961,2174.205z"/>
			</g>
			<g>
				<path style="fill:#D7EDF4;" d="M2443.961,2174.205c-224.918,100.71-531.21,106.607-848.558-48.556l-166.781-95.378
					c-94.121-82.372-136.867-208.097-98.369-338.157l226.913-153.341c2.774,1.604,5.506,3.338,8.15,5.202
					c25.536,17.731,44.654,46.258,46.129,77.342l-3.425,11.966c0.91,92.169,11.792,185.423,45.261,271.35
					c33.425,85.926,90.956,164.483,170.206,211.565c26.792,15.954,55.666,28.093,85.146,38.28
					C2079.271,2213.44,2265.561,2205.246,2443.961,2174.205z"/>
			</g>
			<g>
				<path style="fill:#D7EDF4;" d="M2666.407,1301.109c-42.659-6.546-85.406-12.009-128.456-13.7
					c-93.514-3.728-187.027,10.188-278.027,32.082c-107.993,26.012-213.256,63.253-313.575,111.028l-13.614-3.121
					c0.477-48.946,24.928-95.247,58.181-131.144c5.376-5.809,10.967-11.401,16.777-16.734l233.546-81.635l325.064-8.671
					C2604.628,1226.238,2637.838,1263.564,2666.407,1301.109z"/>
			</g>
			<g>
				<path style="fill:#000072;" d="M1428.607,2030.272c-86.152-42.98-129.959-154.191-127.276-246.514
					c0.826-32.492,7.069-64.702,18.053-94.854c0.874-2.537,2.354-4.785,4.517-6.165c3.579-1.18,538.073-365.034,541.51-365.473
					c6.546-0.712,367.965-130.459,375.535-130.69c0.006-0.003,324.903-14.697,324.903-14.697c4.727-0.214,9.082,1.572,12.248,4.608
					c127.685,121.875,232.674,281.942,243.738,462.478c13.822,181.57-81.674,358.227-225.622,465.123
					c-214.314,162.429-504.882,189.124-759.627,123.507c-84.913-21.276-168.515-52.339-241.172-101.946
					c83.123,25.904,163.048,56.634,247.349,76.942c246.469,60.494,527.293,31.753,732.036-126.409
					c175.452-133.145,254.873-345.465,186.617-558.152c-25.493-80.691-68.678-155.202-121.505-221.334
					c-26.431-33.365-55.215-64.969-85.649-95.012l12.512,4.864l-325.217,2.648l3.43-0.63l-372.105,130.06
					c12.475-8.152-538.961,364.952-536.31,362.862c0,0.002,4.514-6.162,4.514-6.162c-18.487,79.93-11.347,165.178,26.808,238.141
					C1386.005,1967.09,1406.507,1997.022,1428.607,2030.272L1428.607,2030.272z"/>
			</g>
			<g>
				<g>
					<path style="fill:#000072;" d="M2317.856,1506.316c0,0,95.032-48.324,173.498-9.47c0,0-4.037,29.159,0.016,79.591
						c0,0-113.501-25.027-161.179,26.036C2330.191,1602.474,2326.086,1532.675,2317.856,1506.316z"/>
				</g>
				<g>
					<path style="fill:#000072;" d="M2330.185,1620.146c-2.007,0-4.033-0.342-5.991-1.05c-6.646-2.397-11.226-8.53-11.641-15.586
						c-1.108-18.818-5.347-72.021-11.563-91.924c-2.568-8.228,1.172-17.109,8.857-21.021c4.194-2.139,103.911-51.851,189.346-9.556
						c6.812,3.374,10.703,10.728,9.663,18.257c-0.034,0.244-3.691,28.247,0.127,75.757c0.449,5.586-1.777,11.055-6.001,14.736
						c-4.229,3.687-9.976,5.137-15.415,3.936c-28.862-6.313-111.108-14.883-144.463,20.84
						C2339.702,1618.178,2335,1620.146,2330.185,1620.146z M2338.476,1516.606c3.105,16.035,5.386,36.27,6.924,53.032
						c41.431-20.981,96.421-18.125,126.978-14.224c-0.894-21.006-0.396-37.08,0.254-47.451
						C2421.357,1488.705,2363.5,1506.738,2338.476,1516.606z"/>
				</g>
				<g>
					<path style="fill:#000072;" d="M2243.105,1862.588c-52.597,23.487-101.788,35.997-146.379,40.391
						c-10.871,1.032-21.43,1.62-31.723,1.767c-34.281,0.474-65.405-3.96-92.75-11.829c-18.788-5.363-35.815-12.383-50.879-20.494
						c-15.16-8.145-28.321-17.475-39.283-27.424c-77.963-70.813-121.577-271.682-106.423-313.768
						c24.476-67.872,179.675-102.29,303.641-104.841c31.22-0.619,60.493,0.759,85.135,4.127c13.706,1.864,26.535,4.012,38.568,6.342
						c24.994,4.826,46.498,10.51,64.906,16.508c28.702,9.392,49.853,19.477,64.961,28.355c23.63,13.84,32.553,24.615,32.553,24.615
						S2435.88,1776.538,2243.105,1862.588z"/>
				</g>
				<g style="opacity:0.4;">
					<path style="fill:#FFFFFF;" d="M2203.012,1436.859l-230.759,456.057c-18.788-5.363-35.815-12.383-50.879-20.494
						l157.935-446.032c31.22-0.619,60.493,0.759,85.135,4.127C2178.15,1432.382,2190.98,1434.529,2203.012,1436.859z"/>
				</g>
				<g style="opacity:0.4;">
					<path style="fill:#FFFFFF;" d="M2332.879,1481.722l-236.153,421.256c-10.871,1.032-21.43,1.62-31.723,1.767l202.915-451.378
						C2296.62,1462.759,2317.771,1472.844,2332.879,1481.722z"/>
				</g>
				<g>
					<path style="fill:#000072;" d="M2935.14,1740.719c-35.667,52.818-119.952,102.684-247.036,83.024
						c-8.136-1.238-16.443-2.773-24.927-4.652c-4.049-0.848-8.159-1.825-12.319-2.842c-23.798-5.873-44.11-15.374-61.455-27.489
						c-13.586-9.463-25.361-20.543-35.581-32.712c-79.771-95.447-62.45-259.183-62.45-259.183s34.735-56.934,170.267-89.801
						c12.327-2.972,25.943-5.412,40.403-7.223c39.341-5.011,84.832-5.557,127.476-0.868c14.86,1.64,29.428,3.904,43.212,6.849
						c28.173,6.001,53.259,14.767,72.072,26.623c14.062,8.863,24.599,19.45,30.261,31.875
						C2990.423,1498.101,2982.655,1670.223,2935.14,1740.719z"/>
				</g>
				<g style="opacity:0.4;">
					<path style="fill:#FFFFFF;" d="M2829.519,1398.972l-240.115,389.787c-13.586-9.463-25.361-20.543-35.581-32.712l148.22-356.207
						C2741.384,1394.829,2786.874,1394.284,2829.519,1398.972z"/>
				</g>
				<g style="opacity:0.4;">
					<path style="fill:#FFFFFF;" d="M2944.803,1432.444l-256.699,391.299c-8.136-1.238-16.443-2.773-24.927-4.652l209.554-413.27
						C2900.904,1411.822,2925.99,1420.588,2944.803,1432.444z"/>
				</g>
				<g>
					<path style="fill:#000072;" d="M2060.214,1922.509c-84.98,0-150.894-28.906-189.995-64.419
						c-81.182-73.735-129.448-282.148-111.182-332.837l0,0c35.82-99.375,284.385-129.15,407.822-112.251
						c160.64,21.992,210.146,79.58,212.178,82.021c1.655,1.992,2.856,4.326,3.511,6.841c0.747,2.876,18.286,71.392,11.621,151.777
						c-9.058,109.272-58.799,187.1-143.853,225.063C2180.175,1910.019,2116.074,1922.509,2060.214,1922.509z M1792.28,1537.236
						L1792.28,1537.236c-11.289,31.338,26.641,226.519,101.699,294.692c56.924,51.699,180.63,86.514,341.934,14.512
						c163.789-73.115,121.089-296.992,113.467-331.274c-11.099-10.234-61.24-49.893-187.314-67.153
						C2040.869,1431.43,1817.895,1466.259,1792.28,1537.236z"/>
				</g>
				<g>
					<path style="fill:#000072;" d="M2742.856,1845.732c-29.458,0-61.563-3.77-96.226-12.344
						c-83.97-20.767-140.469-86.646-163.394-190.508c-16.768-75.957-9.761-144.99-9.458-147.891
						c0.278-2.607,1.128-5.117,2.495-7.354c1.572-2.578,40.171-63.525,181.206-97.725c92.681-22.466,294.438-19.146,333.672,67.109
						c18.804,41.313,8.447,219.663-41.382,293.555C2917.031,1799.14,2846.362,1845.727,2742.856,1845.732z M2508.549,1503.31
						c-2.476,34.912-11.729,256.621,146.567,295.771c138.76,34.307,229.663-15.322,265.352-68.262
						c45.928-68.105,50.117-233.672,38.516-259.165c0,0,0,0,0-0.005c-24.546-53.95-188.623-72.744-293.174-47.393
						C2558.173,1450.356,2517.851,1491.972,2508.549,1503.31z"/>
				</g>
			</g>
			<g>
				<g>
					<path style="fill:#39A1FF;" d="M2869.475,1249.909c-462.538-136.824-738.006,39.625-986.509,230.814
						c-247.678,190.452-468.608,395.514-821.332,319.775c-56.36-91.042,43.354-169.079,138.731-299.139
						c-35.897-85.319-60.868-171.246-78.253-257.563c-8.887-44.004,1.561-89.742,28.527-125.638
						c44.437-59.134,83.542-116.274,114.67-170.466c9.234-16.041,21.07-30.391,34.943-42.486
						c5.463-4.769,11.272-9.234,17.341-13.266c166.954-111.505,362.435-184.339,512.958-258.17
						c30.131-14.74,63.426-22.11,96.982-20.636c74.222,3.295,141.029,17.428,198.082,45.695c8.194,4.075,16.908,7.067,25.883,8.801
						c33.989,6.633,68.108,11.185,102.487,13.223c23.671,1.387,46.214,10.405,64.164,25.925
						c83.758,72.271,168.514,163.53,253.834,264.933c7.934,9.451,14.697,19.726,20.203,30.608
						c9.364,18.425,15.087,38.584,16.691,59.394l4.812,62.472c0.043,0,0.087,0.043,0.13,0.043
						C2703.822,1162.118,2789.098,1203.953,2869.475,1249.909z"/>
				</g>
				<g style="opacity:0.5;">
					<g>
						<path style="fill:#FFFFFF;" d="M1867.736,1154.952c31.89-6.021,62.495-28.069,93.923-19.974
							c21.078,5.429,36.304,23.223,50.091,40.066c24.692,30.166,49.384,60.332,74.076,90.498
							c4.644,5.673,9.458,11.713,10.619,18.953c1.466,9.145-3.187,18.053-7.857,26.051c-10.342,17.71-21.544,34.917-33.554,51.541
							c19.535-23.958,47.095-39.823,74.586-53.959c74.506-38.31,153.463-67.955,234.771-88.146
							c-90.04,18.023-189.081-23.462-239.398-100.275c-3.92-5.984-7.681-12.555-7.662-19.708
							c0.039-14.792,15.239-24.291,28.497-30.85c-57.066-5.482-115.428,3.05-168.537,24.637
							c-37.526,15.253-72.134,36.751-106.534,58.141"/>
					</g>
				</g>
				<g style="opacity:0.5;">
					<g>
						<path style="fill:#FFFFFF;" d="M2056.719,639.33c41.249,30.844,77.511,68.342,106.957,110.6
							c10.478,15.037,20.089,30.657,29.693,46.266c37.869,61.545,75.738,123.09,113.607,184.636
							c-29.318-69.069-58.635-138.138-87.953-207.208c-6.51-15.336-13.117-31.091-13.802-47.738
							c-0.684-16.646,5.814-34.637,20.182-43.071c-35.664-1.46-71.04-9.656-103.713-24.027
							c-19.374-8.522-38.883-19.437-60.036-18.72"/>
					</g>
				</g>
				<g>
					<path style="fill:#2B7AED;" d="M2613.82,1124.227c-0.13,0.52-0.217,1.084-0.347,1.604
						c-225.395-49.423-467.654-97.589-680.91-9.495c-68.022,28.136-129.844,69.062-191.189,109.728
						c-51.677,34.292-103.355,68.585-155.032,102.834c-13.44,8.931-27.096,17.992-37.631,30.217
						c-31.735,36.764-28.266,91.216-23.021,139.468c3.425,31.388,8.193,65.594,31.258,87.184
						c40.449,37.978,105.826,13.31,154.729-12.963c57.053-30.695,114.193-61.388,171.29-92.083
						c-247.678,190.452-468.608,395.514-821.332,319.775c-56.36-91.042,43.354-169.079,138.731-299.139
						c-35.897-85.319-60.868-171.246-78.253-257.563c-8.887-44.004,1.561-89.742,28.527-125.638
						c44.437-59.134,83.542-116.274,114.67-170.466c9.234-16.041,21.07-30.391,34.943-42.486c2.8,11.232,5.605,22.464,8.414,33.697
						c14.984,59.927,68.192,102.449,129.948,103.835c43.41,0.974,86.826,1.947,130.256,2.933c11.792,0.26,23.975,0.607,34.683,5.593
						c14.003,6.503,23.324,19.856,31.995,32.645c18.469,27.313,36.98,54.626,55.449,81.895c3.816,5.593,8.238,11.662,14.828,13.093
						c6.329,1.344,12.572-1.951,18.165-5.116c48.295-27.442,96.592-54.842,144.887-82.285
						c46.996-26.662,94.945-53.715,147.836-64.77c34.032-7.153,69.105-7.457,103.875-6.98
						c112.936,1.474,225.742,10.708,337.421,27.486c25.969,3.902,52.674,8.194,78.209,2.124
						c25.536-6.07,49.901-25.405,53.152-51.417c0.953,1.43,1.907,2.905,2.818,4.379
						C2614.6,1038.17,2622.577,1082.824,2613.82,1124.227z"/>
				</g>
				<g>
					<path style="fill:#000072;" d="M1209.37,1834.135c-47.822,0.005-98.076-5.239-151.377-16.685
						c-4.609-0.986-8.618-3.813-11.104-7.827c-50.542-81.636,6.436-151.851,78.574-240.747
						c17.964-22.139,36.489-44.966,55.117-69.932c-32.617-79.199-57.334-161.66-75.469-251.719
						c-9.819-48.77,1.724-99.609,31.685-139.478c47.363-63.057,84.482-118.237,113.477-168.691
						c14.063-24.458,34.004-45.742,57.666-61.548c119.482-79.805,254.8-140.601,374.189-194.238
						c49.971-22.451,97.173-43.657,140.806-65.054c33.13-16.235,69.551-24.018,105.347-22.402
						c80.703,3.564,147.764,19.097,205.02,47.481c6.885,3.408,14.126,5.869,21.533,7.314c34.321,6.685,68.022,11.03,100.171,12.92
						c27.393,1.602,53.848,12.295,74.487,30.108c76.641,66.123,160.298,153.433,255.752,266.919
						c23.945,28.477,38.101,62.993,40.928,99.819l3.999,51.948c87.158,37.08,170.513,78.276,247.915,122.529
						c7.642,4.37,10.796,13.77,7.339,21.86c-3.452,8.096-12.427,12.314-20.864,9.824
						c-492.988-145.83-767.671,68.779-1033.325,276.304C1640.366,1691.952,1458.33,1834.12,1209.37,1834.135z M1072.773,1785.112
						c310.742,63.477,517.896-98.35,737.114-269.6c133.647-104.404,271.846-212.363,440.645-275.703
						c153.467-57.583,314.941-70.405,490.396-38.555c-43.398-21.411-88.154-41.821-133.96-61.084
						c-5.991-2.52-10.068-8.179-10.566-14.653l-4.81-62.48c-2.271-29.556-13.643-57.27-32.891-80.156
						c-94.253-112.056-176.641-198.081-251.865-262.983c-14.902-12.861-34.033-20.586-53.862-21.748
						c-33.687-1.973-68.94-6.519-104.775-13.496c-10.449-2.036-20.64-5.498-30.298-10.283
						c-52.847-26.196-115.371-40.557-191.152-43.906c-30.019-1.318-60.615,5.205-88.545,18.897
						c-44.155,21.655-91.616,42.974-141.86,65.547c-118.149,53.086-252.065,113.247-369.136,191.44
						c-19.248,12.857-35.454,30.146-46.865,49.995c-29.707,51.694-67.593,108.032-115.815,172.236
						c-24.023,31.968-33.286,72.72-25.41,111.802c18.369,91.24,43.633,174.404,77.231,254.253
						c2.368,5.615,1.606,12.065-1.997,16.978c-21.079,28.75-41.86,54.355-61.958,79.121
						C1080.458,1679.379,1043.232,1729.677,1072.773,1785.112z"/>
				</g>
				<g>
					<path style="fill:#000072;" d="M1382.449,989.788c144.483,50.657,304.922-7.385,402.86-119.625
						c34.12-37.12,61.307-79.313,87.034-123.155C1828.77,957.485,1576.737,1099.713,1382.449,989.788L1382.449,989.788z"/>
				</g>
				<g>
					<path style="fill:#000072;" d="M1200.356,1514.365c-5.854,0-11.172-3.979-12.627-9.922c-1.704-6.978,2.573-14.019,9.551-15.723
						c196.494-47.979,330.288-140.273,459.673-229.531c103.052-71.094,200.391-138.242,325.249-182.979
						c31.685-11.348,64.692-17.554,98.096-18.447c245.039-6.567,416.377,12.48,555.474,61.699c6.768,2.397,10.317,9.829,7.92,16.602
						s-9.824,10.308-16.602,7.92c-135.942-48.105-304.341-66.685-546.099-60.215c-30.645,0.815-60.933,6.514-90.02,16.934
						c-121.655,43.589-217.632,109.8-319.248,179.897c-131.323,90.596-267.119,184.272-468.271,233.394
						C1202.417,1514.242,1201.376,1514.365,1200.356,1514.365z"/>
				</g>
				<g>
					<path style="fill:#000072;" d="M2312.127,1074.372l0.33-20.787c1.232-19.085-7.042-35.981-14.976-52.82
						c-23.075-49.849-50.021-98.119-76.96-146.177c-13.398-24.26-27.158-48.366-40.366-72.897
						c35.617,42.884,68.683,87.705,98.787,134.67c15.02,23.53,29.824,47.329,42.888,72.278
						c6.902,13.375,14.707,26.256,17.937,41.322c3.492,13.396,2.507,30.957,2.708,44.599
						C2342.474,1074.56,2312.127,1074.372,2312.127,1074.372L2312.127,1074.372z"/>
				</g>
			</g>
			<g>
				<g>
					<path style="fill:#FFFFFF;" d="M2328.256,1874.144c2.804,25.672,25.856,42.177,42.622,45.866
						c49.265,10.839,77.749-27.903,84.244-48.311c1.193-3.748,7.678-4.067,9.777-0.741c9.026,14.3,48.017,48.316,85.285,26.563
						c22.272-13,24.281-44.345,24.281-44.345s5.276-81.872-121.434-72.658S2328.256,1874.144,2328.256,1874.144z"/>
				</g>
				<g>
					<path style="fill:#000072;" d="M2328.255,1874.144c16.167,35.271,60.823,45.633,91.49,24.648
						c9.563-6.362,17.956-16.076,22.746-26.581c0.879-1.846,1.398-3.646,2.178-5.482c4.724-9.936,16.949-12.565,26.128-6.15
						c1.63,1.155,3.151,3.031,4.331,4.778c17.278,21.695,52.011,36.726,77.085,19.531c9.317-6.571,16.59-18.476,22.254-31.712
						c3.372,17.019-1.206,36.073-14.102,48.75c-32.715,29.763-78.767,10.353-102.554-20.894c-0.485-0.718-2.215-3.124-2.666-3.831
						c2.11,3.119,5.537,3.996,8.445,1.713c1.026-0.771,2.117-2.236,2.522-3.594c0.066-0.231-0.059,0.153-0.078,0.199
						c-6.051,17.395-16.988,32.38-31.641,43.596c-19.637,15.372-46.967,19.083-70.43,10.672
						C2341.877,1921.625,2323.37,1897.276,2328.255,1874.144L2328.255,1874.144z"/>
				</g>
				<g>
					<path style="fill:#000072;" d="M2455.112,1883.227c-2.109,0-4.243-0.576-6.152-1.787c-5.303-3.35-6.934-10.313-3.73-15.659
						c0.464-0.889,10.64-21.196,2.358-77.407c-0.928-6.299,3.428-12.158,9.727-13.086c6.279-0.918,12.153,3.428,13.086,9.727
						c9.766,66.304-3.94,90.327-5.537,92.847C2462.67,1881.327,2458.93,1883.227,2455.112,1883.227z"/>
				</g>
			</g>
			<g>
				<g>
					<path style="fill:#000072;" d="M2395.749,1787.271c2.974,24.901,47.24,56.038,63.786,53.693
						c18.969-2.689,65.766-24.073,62.407-55.933c-1.583-15.011-21.037-28.804-60.16-28.995
						C2425.007,1755.857,2393.267,1766.491,2395.749,1787.271z"/>
				</g>
				<g style="opacity:0.5;">
					<path style="fill:#FFFFFF;" d="M2454.898,1774.284c0.44,4.039,14.267,10.726,20.624,10.371
						c4.602-0.257,16.886-2.676,18.3-7.964c0.826-3.089-4.767-7.945-18.419-8.746
						C2461.671,1767.138,2454.468,1770.337,2454.898,1774.284z"/>
				</g>
			</g>
			<g>
				<path style="fill:#000072;" d="M1642.369,1887.975c-94.467,7.197-189.262,34.995-265.667,92.462
					c-25.777,18.903-49.103,40.906-71.013,64.204c8.895-13.491,18.689-26.447,29.565-38.455
					c55.154-60.274,130.818-99.435,209.333-119.822c31.597-8.252,63.985-13.307,96.492-15.813c4.81-0.371,9.009,3.228,9.38,8.037
					C1650.834,1883.42,1647.199,1887.631,1642.369,1887.975L1642.369,1887.975z"/>
			</g>
			<g>
				<path style="fill:#000072;" d="M1707.408,2014.815c-79.893,13.324-158.584,43.729-219.619,98.122
					c-20.457,17.921-39.087,37.909-56.621,59.447c38.097-75.638,113.493-126.926,191.562-155.335
					c26.465-9.594,53.882-16.431,81.585-21.068c5.198-0.87,10.117,2.639,10.986,7.837
					C1716.178,2009.037,1712.633,2013.974,1707.408,2014.815L1707.408,2014.815z"/>
			</g>
			<g>
				<path style="fill:#000072;" d="M1791.624,2106.984c-60.647,23.334-117.693,59.66-157.122,112.091
					c-13.289,17.324-24.858,35.952-35.53,55.623c10.724-44.018,38.691-82.192,71.228-113.097
					c33.037-31.137,72.929-54.708,115.195-70.94C1796.162,2086.723,1802.366,2102.698,1791.624,2106.984L1791.624,2106.984z"/>
			</g>
			<g>
				<g>
					<path style="fill:#FFFFFF;" d="M1762.401,3280.976c-0.217,10.795-0.867,21.2-2.124,31.127
						c-3.641,29.481-21.547,55.406-48.339,68.239c-73.961,35.377-207.533,40.579-298.576,21.2
						c-55.883-11.879-87.704-72.357-64.553-124.554c2.298-5.203,4.986-10.275,8.021-15.26c16.69-27.356,43.743-51.114,73.31-69.583
						c-0.693-2.688-1.474-5.376-2.298-7.978c-2.428-8.106-5.246-15.91-8.497-23.454
						c-85.276-200.553-428.723-232.635-375.051-657.889l589.607,290.469c27.4,54.928,62.169,104.612,112.719,143.067
						C1733.094,3064.686,1764.308,3187.766,1762.401,3280.976z"/>
				</g>
				<g>
					<path style="fill:#D7EDF4;" d="M1424.533,3157.373c-15.521-25.205-18.154-57.908-6.864-85.271
						c3.153-7.642,7.568-15.137,14.486-19.663c5.538-3.623,12.196-5.036,18.7-6.256c35.544-6.669,76.444-8.254,103.389,15.867
						c14.638,13.104,22.843,32.188,26.327,51.523c3.484,19.335,2.66,39.155,1.825,58.783c-0.104,2.44-0.333,5.159-2.15,6.791
						c-1.62,1.454-4.001,1.578-6.178,1.594c-40.897,0.293-83.305-10.325-121.803,3.483c-5.016,1.799-10.133,4.035-15.441,3.563
						c-11.464-1.019-17.829-13.419-22.051-24.126L1424.533,3157.373z"/>
				</g>
				<g>
					<path style="fill:#D7EDF4;" d="M1762.401,3280.976c-0.217,10.795-0.867,21.2-2.124,31.127
						c-3.641,29.481-21.547,55.406-48.339,68.239c-73.961,35.377-207.533,40.579-298.576,21.2
						c-55.883-11.879-87.704-72.357-64.553-124.554c2.298-5.203,4.986-10.275,8.021-15.26l4.942-0.217
						c-8.323,30.304,11.445,62.906,38.628,78.73c27.226,15.825,59.958,18.382,91.389,18.816
						c49.163,0.607,98.326-3.208,146.795-11.358c25.232-4.249,50.55-9.798,73.441-21.113
						C1732.617,3316.352,1751.302,3300.962,1762.401,3280.976z"/>
				</g>
				<g>
					<path style="fill:#000072;" d="M1044.293,2502.824c6.75,67.515,6.818,137.043,24.768,202.608
						c25.932,98.648,95.267,176.369,173.231,239.551c53.766,45.088,111.58,86.638,155.734,143.384
						c10.775,14.217,21.641,30.768,29.509,46.941c8.642,16.24,14.459,34.664,19.373,52.406c2.19,7.522-1.133,15.352-7.588,19.143
						c-25.746,16.268-49.328,35.927-65.925,61.089c-35.305,51.553-3.55,113.324,57.525,119.3
						c86.025,13.769,198.23,12.795,277.595-24.703c19.062-10.588,32.097-31.125,34.572-52.949c0,0,1.353-15.285,1.353-15.285
						c1.713-31.739-0.573-63.201-3.689-95.235c-8.892-87.144-20.712-176.01-11.381-264.459c-0.043-0.34,6.742,15.614,6.748,15.543
						c-50.006-39.681-85.605-95.716-102.218-156.866c35.889,46.861,75.014,94.986,123.224,129.265
						c5.075,3.78,7.412,9.803,6.737,15.685c-8.973,85.795,2.716,171.404,11.414,257.523c3.777,38.629,6.561,78.948,2.238,118.043
						c-3.761,32.43-23.034,62.782-51.912,78.915c-79.583,38.757-180.719,41.646-267.224,33.413
						c-23.069-2.993-47.063-5.251-68.877-14.164c-48.888-20.126-76.97-78.116-61.322-128.914
						c14.99-46.54,53.183-80.337,92.757-105.613c0.039-0.037-7.57,19.128-7.563,19.128
						c-18.796-63.985-66.335-112.159-116.753-154.813c-78.674-65.477-170.013-132.611-220.677-227.009
						C1024.88,2720.426,1009.464,2604.964,1044.293,2502.824L1044.293,2502.824z"/>
				</g>
				<g>
					<path style="fill:#000072;" d="M1414.696,3181.453c55.131-28.382,119.441-12.559,175.852,2.02
						c-14.282-0.638-28.564-0.776-42.708-0.639c-38.539,0.322-85.119,6.15-114.707,27.997
						C1412.744,3224.517,1393.464,3193.922,1414.696,3181.453L1414.696,3181.453z"/>
				</g>
				<g>
					<path style="fill:#000072;" d="M1465.159,3424.184c-36.274-33.985-28.043-89.647-4.672-127.99
						c-6.929,28.699-8.663,60.553,7.713,84.746c4.925,6.935,11.18,12.121,18.218,15.841L1465.159,3424.184L1465.159,3424.184z"/>
				</g>
				<g>
					<path style="fill:#000072;" d="M1595.22,3424.184c-36.276-33.983-28.043-89.648-4.672-127.99
						c-6.933,28.699-8.662,60.552,7.711,84.746c4.927,6.935,11.182,12.121,18.221,15.841L1595.22,3424.184L1595.22,3424.184z"/>
				</g>
				<g>
					<path style="fill:#000072;" d="M1740.569,2910.792c21.218,12.296,36.851,32.163,55.748,47.774
						c-0.001,0.001,19.667,16.812,19.667,16.812c-8.459-1.437-16.997-3.196-25.322-5.693c-25.096-7.457-49.838-18.138-71.04-33.661
						c-7.2-5.27-8.765-15.38-3.494-22.58c4.834-6.6,13.733-8.464,20.728-4.665L1740.569,2910.792L1740.569,2910.792z"/>
				</g>
			</g>
			<g>
				<path style="fill:#000072;" d="M2031.861,2924.917c-5.571,33.308-57.396,52.119-87.141,50.462
					c7.089-4.913,13.755-10.302,20.354-15.464c19.469-15.207,35.992-33.614,54.636-49.635c5.651-5.039,15.062,0.621,13.435,7.883
					C2033.145,2918.162,2031.861,2924.917,2031.861,2924.917L2031.861,2924.917z"/>
			</g>
		</g>
	</g>
</g>
</svg>
